<svg width="0" height="0" class="hidden">
    <symbol xmlns="http://www.w3.org/2000/svg" viewBox="0 0 15 26" id="fb">
        <path d="M14.4351 0.00540974L10.8373 0C6.7953 0 4.18317 2.51147 4.18317 6.39863V9.34883H0.565722C0.253132 9.34883 0 9.58632 0 9.87926V14.1538C0 14.4467 0.253421 14.6839 0.565722 14.6839H4.18317V25.4698C4.18317 25.7628 4.4363 26 4.74889 26H9.46863C9.78122 26 10.0343 25.7625 10.0343 25.4698V14.6839H14.264C14.5766 14.6839 14.8297 14.4467 14.8297 14.1538L14.8314 9.87926C14.8314 9.73861 14.7717 9.6039 14.6658 9.50436C14.5598 9.40483 14.4155 9.34883 14.2654 9.34883H10.0343V6.84791C10.0343 5.64587 10.34 5.03565 12.0109 5.03565L14.4346 5.03484C14.7469 5.03484 15 4.79735 15 4.50469V0.535564C15 0.243168 14.7472 0.00595071 14.4351 0.00540974Z"
        ></path>
    </symbol>
    <symbol xmlns="http://www.w3.org/2000/svg" viewBox="0 0 26 26" id="inst">
        <path d="M17.875 0H8.125C3.63838 0 0 3.63838 0 8.125V17.875C0 22.3616 3.63838 26 8.125 26H17.875C22.3616 26 26 22.3616 26 17.875V8.125C26 3.63838 22.3616 0 17.875 0ZM23.5625 17.875C23.5625 21.0112 21.0112 23.5625 17.875 23.5625H8.125C4.98875 23.5625 2.4375 21.0112 2.4375 17.875V8.125C2.4375 4.98875 4.98875 2.4375 8.125 2.4375H17.875C21.0112 2.4375 23.5625 4.98875 23.5625 8.125V17.875Z"
        ></path>
        <path d="M13 6.5C9.41037 6.5 6.5 9.41037 6.5 13C6.5 16.5896 9.41037 19.5 13 19.5C16.5896 19.5 19.5 16.5896 19.5 13C19.5 9.41037 16.5896 6.5 13 6.5ZM13 17.0625C10.7607 17.0625 8.9375 15.2393 8.9375 13C8.9375 10.7591 10.7607 8.9375 13 8.9375C15.2393 8.9375 17.0625 10.7591 17.0625 13C17.0625 15.2393 15.2393 17.0625 13 17.0625Z"
        ></path>
        <path d="M19.9854 6.87891C20.4637 6.87891 20.8515 6.49114 20.8515 6.01279C20.8515 5.53444 20.4637 5.14667 19.9854 5.14667C19.507 5.14667 19.1193 5.53444 19.1193 6.01279C19.1193 6.49114 19.507 6.87891 19.9854 6.87891Z"
        ></path>
    </symbol>
    <symbol xmlns="http://www.w3.org/2000/svg" viewBox="0 0 26 14" id="vk">
        <path d="M25.8621 12.6435C25.8306 12.5795 25.8013 12.5264 25.774 12.4838C25.3229 11.7171 24.4609 10.7759 23.1884 9.66014L23.1615 9.63459L23.1481 9.62206L23.1345 9.60922H23.1208C22.5433 9.08965 22.1776 8.7403 22.0245 8.56144C21.7442 8.22073 21.6815 7.87586 21.8346 7.52642C21.9428 7.26241 22.3492 6.70485 23.053 5.85298C23.4231 5.40152 23.7163 5.03968 23.9328 4.76708C25.4942 2.80801 26.1711 1.55614 25.9634 1.01098L25.8828 0.883578C25.8286 0.80688 25.6887 0.736714 25.4634 0.672725C25.2375 0.608869 24.9488 0.598309 24.5967 0.640865L20.6981 0.666281C20.635 0.64516 20.5448 0.647129 20.4273 0.672725C20.31 0.698321 20.2513 0.711164 20.2513 0.711164L20.1834 0.743158L20.1295 0.781597C20.0844 0.807014 20.0348 0.851717 19.9806 0.915617C19.9267 0.979294 19.8816 1.05402 19.8455 1.13918C19.4211 2.16977 18.9385 3.12796 18.3969 4.0137C18.063 4.54186 17.7563 4.99959 17.4762 5.38715C17.1965 5.77458 16.9619 6.06003 16.7725 6.243C16.5828 6.42616 16.4117 6.57289 16.2579 6.68373C16.1045 6.79461 15.9873 6.84146 15.9062 6.82432C15.8249 6.80719 15.7483 6.79018 15.6758 6.77318C15.5495 6.69648 15.448 6.59217 15.3714 6.46017C15.2945 6.32816 15.2427 6.16201 15.2156 5.96185C15.1887 5.76156 15.1728 5.58928 15.1682 5.44443C15.164 5.29976 15.1659 5.09513 15.1751 4.83111C15.1845 4.56697 15.1887 4.38824 15.1887 4.29454C15.1887 3.97083 15.1954 3.61952 15.2088 3.2405C15.2225 2.86148 15.2335 2.56118 15.2428 2.33995C15.252 2.11849 15.2562 1.88419 15.2562 1.63718C15.2562 1.39017 15.2403 1.19646 15.2088 1.05586C15.1777 0.915438 15.13 0.779136 15.067 0.646995C15.0037 0.514988 14.9111 0.412873 14.7895 0.340381C14.6677 0.267979 14.5163 0.210523 14.3361 0.167833C13.8577 0.0656732 13.2486 0.0104095 12.5084 0.00181783C10.8299 -0.0151864 9.75134 0.0871074 9.27303 0.308565C9.08351 0.402133 8.91202 0.529978 8.75868 0.691698C8.59619 0.879147 8.57353 0.981442 8.69083 0.998267C9.23239 1.07483 9.61578 1.25798 9.84143 1.54755L9.92274 1.70099C9.98599 1.8117 10.0491 2.00769 10.1124 2.28871C10.1755 2.56973 10.2162 2.88059 10.2341 3.22112C10.2792 3.84299 10.2792 4.37531 10.2341 4.81814C10.1889 5.26114 10.1463 5.60602 10.1055 5.85302C10.0648 6.10003 10.0039 6.30019 9.92274 6.45345C9.84143 6.60676 9.78733 6.70046 9.76021 6.73447C9.73314 6.76848 9.71057 6.78991 9.69264 6.79833C9.57534 6.84075 9.45334 6.86236 9.32708 6.86236C9.20063 6.86236 9.04729 6.80267 8.86683 6.68337C8.68642 6.56407 8.49918 6.4002 8.30511 6.1915C8.11105 5.98275 7.89218 5.69104 7.64843 5.31632C7.40486 4.9416 7.15214 4.49873 6.89042 3.9877L6.67388 3.6171C6.53851 3.37868 6.35359 3.03153 6.11894 2.57595C5.88415 2.12019 5.67661 1.67933 5.4962 1.25346C5.42409 1.07461 5.31575 0.938439 5.17137 0.844737L5.10361 0.806298C5.05857 0.772289 4.98626 0.736177 4.88707 0.697694C4.78774 0.659256 4.68409 0.631691 4.57571 0.614731L0.866541 0.640148C0.487513 0.640148 0.230338 0.721187 0.0949232 0.88304L0.0407288 0.959604C0.0136553 1.00225 0 1.07036 0 1.1641C0 1.25781 0.0270735 1.37281 0.0812679 1.50898C0.622738 2.71001 1.21157 3.86832 1.84778 4.98406C2.48398 6.09981 3.03683 6.99857 3.50599 7.67955C3.97525 8.36102 4.45357 9.00418 4.94094 9.60873C5.42831 10.2135 5.75091 10.6011 5.90875 10.7713C6.06679 10.9419 6.19092 11.0694 6.28115 11.1546L6.61964 11.4612C6.83622 11.6656 7.15428 11.9105 7.57394 12.1957C7.9937 12.4812 8.4584 12.7622 8.9683 13.0392C9.47828 13.3158 10.0716 13.5415 10.7485 13.7161C11.4253 13.8908 12.0841 13.961 12.7249 13.9271H14.2817C14.5975 13.9014 14.8367 13.8077 14.9992 13.646L15.0531 13.5819C15.0893 13.5311 15.1232 13.4521 15.1545 13.3459C15.1862 13.2394 15.2019 13.1221 15.2019 12.9945C15.1927 12.6284 15.2222 12.2984 15.2897 12.0045C15.3572 11.7108 15.4341 11.4894 15.5201 11.3402C15.6061 11.1912 15.7031 11.0655 15.8111 10.9635C15.9193 10.8614 15.9964 10.7995 16.0416 10.7782C16.0865 10.7567 16.1224 10.7422 16.1495 10.7335C16.3661 10.6654 16.621 10.7313 16.9146 10.9317C17.2079 11.1318 17.4831 11.379 17.7404 11.6727C17.9977 11.9667 18.3067 12.2965 18.6676 12.6627C19.0288 13.029 19.3446 13.3013 19.6152 13.4804L19.8858 13.6337C20.0666 13.736 20.3012 13.8297 20.5901 13.9149C20.8784 14 21.131 14.0213 21.3479 13.9787L24.8133 13.9277C25.1561 13.9277 25.4228 13.8742 25.612 13.7679C25.8015 13.6614 25.9141 13.5441 25.9504 13.4166C25.9867 13.2888 25.9886 13.144 25.9573 12.982C25.9252 12.8204 25.8936 12.7074 25.8621 12.6435Z"
        ></path>
    </symbol>
    <symbol xmlns="http://www.w3.org/2000/svg" viewBox="0 0 26 18" id="yt">
        <path d="M20.6001 0H5.39987C2.4176 0 0 2.36527 0 5.28298V12.717C0 15.6347 2.4176 18 5.39987 18H20.6001C23.5824 18 26 15.6347 26 12.717V5.28298C26 2.36527 23.5824 0 20.6001 0ZM16.9482 9.36169L9.83858 12.6792C9.64914 12.7676 9.43031 12.6324 9.43031 12.4271V5.5848C9.43031 5.37656 9.65489 5.24159 9.84473 5.33573L16.9544 8.86056C17.1658 8.96535 17.1621 9.26193 16.9482 9.36169Z"
        ></path>
    </symbol>
    <symbol xmlns="http://www.w3.org/2000/svg" viewBox="0 0 41 16" id="arr-prev">
        <path d="M0.292892 7.2929C-0.0976296 7.68342 -0.0976295 8.31659 0.292893 8.70711L6.65685 15.0711C7.04738 15.4616 7.68054 15.4616 8.07107 15.0711C8.46159 14.6805 8.46159 14.0474 8.07107 13.6569L2.41422 8L8.07107 2.34315C8.46159 1.95262 8.46159 1.31946 8.07107 0.928935C7.68054 0.538411 7.04738 0.538411 6.65685 0.928935L0.292892 7.2929ZM41 7L1 7L1 9L41 9L41 7Z"
        ></path>
    </symbol>
    <symbol xmlns="http://www.w3.org/2000/svg" viewBox="0 0 41 16" id="arr-next">
        <path d="M40.7071 8.70711C41.0976 8.31659 41.0976 7.68342 40.7071 7.2929L34.3431 0.928938C33.9526 0.538414 33.3195 0.538414 32.9289 0.928938C32.5384 1.31946 32.5384 1.95263 32.9289 2.34315L38.5858 8.00001L32.9289 13.6569C32.5384 14.0474 32.5384 14.6805 32.9289 15.0711C33.3195 15.4616 33.9526 15.4616 34.3431 15.0711L40.7071 8.70711ZM-1.74846e-07 9L40 9.00001L40 7.00001L1.74846e-07 7L-1.74846e-07 9Z"
        ></path>
    </symbol>

    <symbol xmlns="http://www.w3.org/2000/svg" viewBox="0 0 70 70" id="chair">
        <path d="M27.6673 12.5379H26.7229V11.5936C26.7229 11.0271 26.2637 10.5677 25.697 10.5677C25.1303 10.5677 24.6711 11.0271 24.6711 11.5936V12.5379H23.7267C23.16 12.5379 22.7008 12.9973 22.7008 13.5639C22.7008 14.1304 23.16 14.5898 23.7267 14.5898H24.6711V15.5343C24.6711 16.1008 25.1303 16.5602 25.697 16.5602C26.2637 16.5602 26.7229 16.1008 26.7229 15.5343V14.5898H27.6673C28.234 14.5898 28.6932 14.1304 28.6932 13.5639C28.6932 12.9973 28.234 12.5379 27.6673 12.5379Z"
        ></path>
        <path d="M46.2719 12.5379H45.3276V11.5936C45.3276 11.0271 44.8683 10.5677 44.3016 10.5677C43.7349 10.5677 43.2757 11.0271 43.2757 11.5936V12.5379H42.3314C41.7647 12.5379 41.3054 12.9973 41.3054 13.5639C41.3054 14.1304 41.7647 14.5898 42.3314 14.5898H43.2757V15.5343C43.2757 16.1008 43.7349 16.5602 44.3016 16.5602C44.8683 16.5602 45.3276 16.1008 45.3276 15.5343V14.5898H46.2719C46.8386 14.5898 47.2978 14.1304 47.2978 13.5639C47.2978 12.9973 46.8386 12.5379 46.2719 12.5379Z"
        ></path>
        <path d="M27.6673 26.6295H26.7229V25.6852C26.7229 25.1186 26.2637 24.6592 25.697 24.6592C25.1303 24.6592 24.6711 25.1186 24.6711 25.6852V26.6295H23.7267C23.16 26.6295 22.7008 27.0889 22.7008 27.6555C22.7008 28.222 23.16 28.6814 23.7267 28.6814H24.6711V29.6257C24.6711 30.1923 25.1303 30.6517 25.697 30.6517C26.2637 30.6517 26.7229 30.1923 26.7229 29.6257V28.6814H27.6673C28.234 28.6814 28.6932 28.222 28.6932 27.6555C28.6932 27.0889 28.234 26.6295 27.6673 26.6295Z"
        ></path>
        <path d="M46.2719 26.6295H45.3276V25.6852C45.3276 25.1186 44.8684 24.6592 44.3017 24.6592C43.735 24.6592 43.2757 25.1186 43.2757 25.6852V26.6295H42.3314C41.7647 26.6295 41.3055 27.0889 41.3055 27.6555C41.3055 28.222 41.7647 28.6814 42.3314 28.6814H43.2757V29.6257C43.2757 30.1923 43.735 30.6517 44.3017 30.6517C44.8684 30.6517 45.3276 30.1923 45.3276 29.6257V28.6814H46.2719C46.8386 28.6814 47.2979 28.222 47.2979 27.6555C47.2979 27.0889 46.8386 26.6295 46.2719 26.6295Z"
        ></path>
        <path d="M63.456 29.0518H49.8792C48.7194 29.0518 47.7757 29.9953 47.7757 31.1551V33.9327C47.7757 35.0924 48.7192 36.0359 49.8792 36.0359H50.0764V40.68C49.1632 39.9606 48.0125 39.5297 46.7625 39.5297H22.9675C21.7175 39.5297 20.5669 39.9605 19.6537 40.68V36.026H20.1209C21.2807 36.026 22.2243 35.0825 22.2243 33.9227V31.1451C22.2243 29.9853 21.2808 29.0418 20.1209 29.0418H6.54403C5.38425 29.0418 4.44061 29.9853 4.44061 31.1451V33.9227C4.44061 35.0825 5.38411 36.026 6.54403 36.026H7.0112V49.1205C7.0112 51.2153 8.62462 52.9395 10.674 53.1182V55.1644C10.674 56.7895 11.9962 58.1116 13.6213 58.1116H15.9723V67.9481H14.5034C13.9367 67.9481 13.4775 68.4075 13.4775 68.974C13.4775 69.5406 13.9367 70 14.5034 70H24.7546C25.3213 70 25.7805 69.5406 25.7805 68.974C25.7805 68.4075 25.3213 67.9481 24.7546 67.9481H23.2857V58.1116H46.4446V67.9481H44.9757C44.409 67.9481 43.9498 68.4075 43.9498 68.974C43.9498 69.5406 44.409 70 44.9757 70H55.2271C55.7938 70 56.253 69.5406 56.253 68.974C56.253 68.4075 55.7938 67.9481 55.2271 67.9481H53.758V58.1116H56.1092C57.7342 58.1116 59.0563 56.7895 59.0563 55.1644V53.1182C61.1057 52.9396 62.7191 51.2153 62.7191 49.1205V36.0359H63.4563C64.6161 36.0359 65.5597 35.0924 65.5597 33.9327V31.1551C65.5595 29.9954 64.616 29.0518 63.456 29.0518ZM22.9675 41.5818H46.7626C48.59 41.5818 50.0766 43.0684 50.0766 44.8957V51.0826H19.6536V44.8957C19.6536 43.0684 21.1403 41.5818 22.9675 41.5818ZM6.54403 33.9741C6.51573 33.9741 6.49263 33.951 6.49263 33.9227V31.1451C6.49263 31.1168 6.51573 31.0937 6.54403 31.0937H20.1209C20.1492 31.0937 20.1723 31.1168 20.1723 31.1451V33.9227C20.1723 33.951 20.1492 33.9741 20.1209 33.9741H6.54403ZM11.0251 51.0827C9.94328 51.0826 9.06308 50.2024 9.06308 49.1206V36.0261H17.6017V51.0827H11.0251ZM21.2337 67.9481H18.0243V58.1117H21.2337V67.9481ZM51.7059 67.9481H48.4965V58.1117H51.7059V67.9481ZM57.0041 55.1644C57.0041 55.6581 56.6026 56.0597 56.109 56.0597H13.6213C13.1276 56.0597 12.7259 55.6581 12.7259 55.1644V53.1344H57.0041V55.1644ZM60.667 49.1206C60.667 50.2025 59.7868 51.0826 58.7049 51.0826H52.1285V36.0361H60.667V49.1206ZM63.5076 33.9328C63.5076 33.9611 63.4845 33.9842 63.4562 33.9842H49.8793C49.851 33.9842 49.8279 33.9611 49.8279 33.9328V31.1552C49.8279 31.1269 49.851 31.1038 49.8793 31.1038H63.4562C63.4845 31.1038 63.5076 31.1269 63.5076 31.1552V33.9328Z"
        ></path>
        <path d="M57.6956 8.45511C57.6959 3.793 53.9029 0 49.2408 0H20.4864C15.8242 0 12.0313 3.793 12.0313 8.45511V25.269C12.0314 25.8357 12.4907 26.2949 13.0574 26.2949C13.6241 26.2949 14.0833 25.8355 14.0833 25.269V8.45511C14.0833 4.92435 16.9558 2.05188 20.4864 2.05188H49.2406C52.7712 2.05188 55.6437 4.92435 55.6437 8.4599L55.7232 25.2737C55.7259 25.8387 56.1846 26.2949 56.749 26.2949C56.7506 26.2949 56.7522 26.2949 56.7539 26.2949C57.3206 26.2922 57.7778 25.8307 57.775 25.264L57.6956 8.45511Z"
        ></path>
    </symbol>
</svg>
